<?xml version="1.0" standalone="no"?>
<!DOCTYPE svg PUBLIC "-//W3C//DTD SVG 20010904//EN"
 "http://www.w3.org/TR/2001/REC-SVG-20010904/DTD/svg10.dtd">
<svg version="1.0" xmlns="http://www.w3.org/2000/svg"
 width="1824.000000pt" height="1824.000000pt" viewBox="0 0 1824.000000 1824.000000"
 preserveAspectRatio="xMidYMid meet">
<metadata>
Created by potrace 1.11, written by Peter Selinger 2001-2013
</metadata>
<g transform="translate(0.000000,1824.000000) scale(0.100000,-0.100000)"
fill="#000000" stroke="none">
<path d="M9065 18210 c-27 -16 -77 -44 -110 -63 -33 -19 -145 -84 -250 -144
-323 -187 -529 -305 -560 -323 -16 -10 -81 -47 -144 -84 -62 -36 -115 -66
-116 -66 -2 0 -32 -17 -66 -38 -35 -22 -84 -50 -109 -64 -25 -14 -234 -134
-465 -268 -231 -134 -478 -277 -550 -318 -71 -41 -188 -109 -260 -150 -71 -41
-186 -107 -255 -147 -69 -39 -197 -114 -285 -165 -153 -88 -457 -264 -520
-300 -16 -9 -106 -61 -200 -115 -162 -94 -254 -147 -320 -185 -16 -9 -75 -43
-130 -75 -55 -32 -147 -85 -205 -118 -58 -33 -170 -98 -250 -145 -80 -47 -179
-104 -220 -127 -41 -23 -174 -99 -295 -170 -121 -70 -236 -136 -255 -147 -19
-11 -107 -62 -195 -113 -88 -51 -279 -161 -425 -245 -267 -154 -373 -215 -542
-314 -51 -29 -196 -113 -323 -186 -126 -73 -288 -166 -360 -208 -71 -41 -149
-85 -171 -98 -23 -13 -90 -52 -150 -87 l-109 -63 -2 -4565 -3 -4564 78 -42
c42 -24 169 -97 282 -163 113 -66 212 -123 220 -127 8 -4 123 -70 255 -146
132 -77 260 -151 285 -165 25 -14 121 -70 214 -124 93 -54 170 -98 172 -98 2
0 28 -16 58 -35 30 -19 57 -35 60 -35 4 0 194 -109 226 -130 8 -5 29 -17 45
-26 17 -9 233 -134 480 -277 248 -143 465 -268 482 -278 18 -10 119 -69 225
-130 106 -61 209 -121 228 -132 19 -10 80 -45 135 -77 55 -32 116 -67 135 -78
19 -10 81 -47 138 -81 57 -33 105 -61 107 -61 2 0 37 -20 77 -44 41 -24 180
-104 309 -178 129 -74 279 -161 334 -193 126 -73 288 -167 580 -335 127 -73
268 -155 315 -183 47 -27 103 -60 125 -72 22 -12 216 -123 430 -247 215 -124
408 -236 430 -248 22 -12 76 -44 120 -70 75 -45 804 -465 1182 -682 l173 -99
207 119 c115 66 280 162 368 212 88 51 243 141 345 200 102 58 257 148 345
199 88 51 167 96 175 101 8 5 53 31 100 58 47 27 175 101 285 164 110 64 272
157 360 208 88 51 176 101 195 112 19 11 107 62 195 113 88 51 176 102 195
113 19 10 76 43 125 72 50 29 106 61 125 72 19 11 181 105 360 208 179 103
341 197 360 208 19 10 224 129 455 262 618 357 793 458 965 557 85 49 214 124
285 165 72 41 204 118 295 170 156 90 230 133 458 264 53 31 189 110 302 175
113 65 473 273 800 462 l595 344 0 4563 0 4564 -360 208 c-198 114 -371 214
-385 222 -14 7 -239 137 -500 288 -261 151 -783 453 -1160 670 -377 218 -827
478 -1000 578 -173 100 -335 194 -360 208 -25 13 -144 82 -265 152 -266 154
-845 488 -1200 693 -331 191 -299 173 -445 257 -69 40 -141 81 -160 92 -19 11
-91 53 -160 93 -69 40 -201 116 -295 170 -425 245 -482 278 -513 297 -19 10
-268 154 -554 319 -286 165 -525 302 -532 304 -6 3 -33 -9 -61 -25z"/>
</g>
</svg>
